<svg xmlns="http://www.w3.org/2000/svg" width="43.033" height="41.209" viewBox="0 0 43.033 41.209">
  <g id="Group_7802" data-name="Group 7802" transform="translate(-3.507 -8.251)" opacity="0.762">
    <path id="Path_11430" data-name="Path 11430" d="M46.161,12.616l-1.843-.53a.382.382,0,0,0-.466.252C41.768,18.575,33.085,20.9,26.713,22.608l-1.046.28a.2.2,0,0,1-.243-.236c.5-2,2.451-9.454,2.969-11.278a.378.378,0,0,0-.247-.463l-1.826-.6a.379.379,0,0,0-.482.25l-.052.173a.155.155,0,0,1-.274.048A5.951,5.951,0,0,0,24.16,9.466c-3.531-2.472-9.127-.59-12.475,4.193s-3.2,10.686.327,13.157a5.982,5.982,0,0,0,1.113.606.211.211,0,0,1,.03.373,26.638,26.638,0,0,0-5.782,4.9C5.29,35.075,3.249,39.352,3.69,43.131A7.093,7.093,0,0,0,6.4,48.064a6.742,6.742,0,0,0,4.066,1.3,10.9,10.9,0,0,0,6.555-2.5c4.729-3.785,5.441-8.251,6.13-12.57.06-.376,1.424-7.866,1.424-7.866a.82.82,0,0,1,.577-.619c.708-.2,1.469-.4,2.254-.615,7-1.874,16.537-4.43,19.015-12.1A.381.381,0,0,0,46.161,12.616ZM20.507,33.871c-.664,4.166-1.238,7.763-5.16,10.9-2.053,1.644-5.232,2.7-7.363,1.134a4.419,4.419,0,0,1-1.636-3.085c-.292-2.5.985-6.017,3.037-8.357a24.714,24.714,0,0,1,6.983-5.456,30.911,30.911,0,0,1,5.051-2.032.2.2,0,0,1,.255.223C21.3,29.082,20.564,33.512,20.507,33.871ZM22.495,23.4a.816.816,0,0,1-.55.6l-2.27.723c-3.674,1.216-5.51.34-6.128-.093-2.281-1.6-2.13-5.916.33-9.429s6.466-5.133,8.748-3.536c1.383.968,1.928,2.983,1.466,5.323C23.5,19.272,22.9,21.665,22.495,23.4Z" transform="translate(0)" fill="#212121" stroke="#2196f3" stroke-width="0.2"/>
    <path id="Path_11431" data-name="Path 11431" d="M145.437,122.32a6.993,6.993,0,0,1,4.837,1.8.4.4,0,0,0,.546-.007l1.389-1.389a.39.39,0,0,0-.006-.561,9.788,9.788,0,1,0-6.034,16.967,10.1,10.1,0,0,0,5.841-2.395h0a.914.914,0,0,0,.327-.7v-7.1a.391.391,0,0,0-.391-.391h-6.638a.391.391,0,0,0-.391.391V130.9a.391.391,0,0,0,.391.391H149.2a.391.391,0,0,1,.391.391v2.96a.916.916,0,0,1-.45.79,7.041,7.041,0,1,1-3.706-13.109Z" transform="translate(-107.198 -90.324)" fill="#212121" stroke="#2196f3" stroke-width="0.2"/>
  </g>
</svg>
