<svg xmlns="http://www.w3.org/2000/svg" width="26" height="26" viewBox="0 0 26 26">
  <g id="Group_6" data-name="Group 6" transform="translate(-1575.5 -230.3)">
    <g id="Group_7421" data-name="Group 7421" transform="translate(1576.5 231.3)">
      <path id="Path_11701" data-name="Path 11701" d="M2.5,0A2.5,2.5,0,1,1,0,2.5,2.5,2.5,0,0,1,2.5,0Z" transform="translate(9.434 9.313)" fill="#1565c0" stroke="#1565c0" stroke-linecap="round" stroke-width="1"/>
      <path id="Path_11702" data-name="Path 11702" d="M-190.979,1541.042l1.277,2.79,2.717,1.512,3.146-.329,2.431,4.056-1.869,2.461v3.023l1.869,2.46-2.431,4.056-3.146-.33-2.717,1.512-1.277,2.789h-4.861l-1.277-2.789-2.717-1.512-3.146.33-2.43-4.056,1.869-2.46v-3.023l-1.869-2.461,2.43-4.056,3.146.329,2.717-1.512,1.277-2.79Z" transform="translate(205.409 -1541.042)" fill="none" stroke="#1565c0" stroke-linecap="round" stroke-linejoin="round" stroke-width="2"/>
    </g>
  </g>
</svg>
